<?xml version="1.0" encoding="UTF-8" standalone="no"?>
<svg width="8px" height="4px" viewBox="0 0 8 4" version="1.1" xmlns="http://www.w3.org/2000/svg" xmlns:xlink="http://www.w3.org/1999/xlink">
    <!-- Generator: Sketch 40.2 (33826) - http://www.bohemiancoding.com/sketch -->
    <title>箭头</title>
    <desc>Created with Sketch.</desc>
    <defs></defs>
    <g id="Page-1" stroke="none" stroke-width="1" fill="none" fill-rule="evenodd" opacity="0.7">
        <g id="箭头" transform="translate(4.000000, 2.000000) scale(1, -1) translate(-4.000000, -2.000000) " fill="#515253">
            <g id="Page-1">
                <g id="规则点评－规则确认待查">
                    <g id="Group">
                        <path d="M7.51786973,0.0771767973 L4.00000667,3.36059652 L0.482132934,0.0771767973 C0.371590418,-0.0257255991 0.192956105,-0.0257255991 0.0826909039,0.0771767973 C-0.0275636346,0.180079194 -0.0275636346,0.347070369 0.0826909039,0.449972766 L3.76405322,3.88597911 C3.77367396,3.89900989 3.78464928,3.91145335 3.79707519,3.92306061 C3.85293307,3.97518375 3.9266032,4.00079736 3.99998534,3.99998107 C4.07339948,4.00079736 4.14705894,3.97521362 4.2029275,3.92306061 C4.21536406,3.91145335 4.22630739,3.89898999 4.23597079,3.8859592 L7.91730111,0.449972776 C8.0275663,0.347080311 8.0275663,0.180079194 7.9173011,0.0771767973 C7.80702523,-0.0257255991 7.62840158,-0.0257255991 7.51786973,0.0771767973 L7.51786973,0.0771767973 Z" id="Shape"></path>
                    </g>
                </g>
            </g>
        </g>
    </g>
</svg>