<?xml version="1.0" encoding="UTF-8" standalone="no"?>
<svg width="15px" height="15px" viewBox="0 0 15 15" version="1.1" xmlns="http://www.w3.org/2000/svg" xmlns:xlink="http://www.w3.org/1999/xlink">
    <!-- Generator: Sketch 40.2 (33826) - http://www.bohemiancoding.com/sketch -->
    <title>Fill 1</title>
    <desc>Created with Sketch.</desc>
    <defs></defs>
    <g id="Page-1" stroke="none" stroke-width="1" fill="none" fill-rule="evenodd">
        <g id="药物组" transform="translate(-503.000000, -137.000000)" fill="#838486">
            <g id="Group-20" transform="translate(503.000000, 137.000000)">
                <path d="M10.5059928,8.24249122 L8.25524867,8.24249122 L8.25524867,10.4932354 C8.25524867,10.9072224 7.92001134,11.2424597 7.50602435,11.2424597 L7.50452811,11.2424597 C7.09054112,11.2424597 6.75522504,10.9072224 6.75522504,10.4932354 L6.75522504,8.24249122 L4.50448086,8.24249122 C4.09049387,8.24249122 3.75525654,7.90725389 3.75525654,7.4932669 L3.75525654,7.49177066 C3.75525654,7.07778367 4.09049387,6.74246759 4.50448086,6.74246759 L6.75522504,6.74246759 L6.75522504,4.49172341 C6.75522504,4.07773642 7.09054112,3.74249909 7.50452811,3.74249909 L7.50602435,3.74249909 C7.92001134,3.74249909 8.25524867,4.07773642 8.25524867,4.49172341 L8.25524867,6.74246759 L10.5059928,6.74246759 C10.9199798,6.74246759 11.2552172,7.07778367 11.2552172,7.49177066 L11.2552172,7.4932669 C11.2552172,7.90725389 10.9199798,8.24249122 10.5059928,8.24249122 M7.45798705,1.39875156 C4.09277761,1.39875156 1.4820687,4.12726996 1.4820687,7.49247941 C1.4820687,10.8577676 4.09277761,13.4924952 7.45798705,13.4924952 C10.823984,13.4924952 13.5525024,10.8577676 13.5525024,7.49247941 C13.5525024,4.12726996 10.823984,1.39875156 7.45798705,1.39875156 M7.50003937,15 C3.35780698,15 0,11.6414843 0,7.49996063 C0,3.35772823 3.35780698,0 7.50003937,0 C11.6422718,0 15,3.35772823 15,7.49996063 C15,11.6414843 11.6422718,15 7.50003937,15" id="Fill-1"></path>
            </g>
        </g>
    </g>
</svg>