<svg id="图层_1" data-name="图层 1" xmlns="http://www.w3.org/2000/svg" viewBox="0 0 13.67 11.55"><defs><style>.cls-1{fill:#fff;stroke:#4baae0;stroke-width:0.7px;}</style></defs><title>book(1)</title><g id="Page-1"><g id="书"><path id="Path-7-Copy-3" class="cls-1" d="M.57,1.51v9.4a5.58,5.58,0,0,1,6.27,0V1.51A5.05,5.05,0,0,0,.57,1.51Z" transform="translate(-0.22 -0.07)"/><path id="Path-7-Copy-2" class="cls-1" d="M7.28,1.51v9.4a5.58,5.58,0,0,1,6.27,0V1.51A5.05,5.05,0,0,0,7.28,1.51Z" transform="translate(-0.22 -0.07)"/><path id="Path-8-Copy-6" class="cls-1" d="M1.69,3.51a2.81,2.81,0,0,1,3.7,0" transform="translate(-0.22 -0.07)"/><path id="Path-8-Copy-7" class="cls-1" d="M8.39,3.51a2.81,2.81,0,0,1,3.7,0" transform="translate(-0.22 -0.07)"/><path id="Path-8-Copy-8" class="cls-1" d="M1.69,5.83a2.81,2.81,0,0,1,3.7,0" transform="translate(-0.22 -0.07)"/><path id="Path-8-Copy-9" class="cls-1" d="M8.39,5.83a2.81,2.81,0,0,1,3.7,0" transform="translate(-0.22 -0.07)"/><path id="Path-8-Copy-10" class="cls-1" d="M1.69,8.14a2.81,2.81,0,0,1,3.7,0" transform="translate(-0.22 -0.07)"/><path id="Path-8-Copy-11" class="cls-1" d="M8.39,8.14a2.81,2.81,0,0,1,3.7,0" transform="translate(-0.22 -0.07)"/></g></g></svg>