<?xml version="1.0" encoding="UTF-8"?>
<svg width="14px" height="12px" viewBox="0 0 14 12" version="1.1" xmlns="http://www.w3.org/2000/svg" xmlns:xlink="http://www.w3.org/1999/xlink">
    <!-- Generator: Sketch 43 (38999) - http://www.bohemiancoding.com/sketch -->
    <title>书</title>
    <desc>Created with Sketch.</desc>
    <defs></defs>
    <g id="Page-1" stroke="none" stroke-width="1" fill="none" fill-rule="evenodd">
        <g id="书" stroke="#FFFFFF" stroke-width="0.7">
            <path d="M0.574780582,1.50803723 C0.574780582,1.68445549 0.574780582,10.9124876 0.574780582,10.9124876 C0.574780582,10.9124876 3.42317143,8.7411859 6.84124044,10.9124876 C6.84124044,10.9124876 6.84124044,1.68445549 6.84124044,1.50803723 C4.56252777,0.0559792419 2.85349326,0.0559792419 0.574780582,1.50803723 Z" id="Path-7-Copy-3"></path>
            <path d="M7.27771833,1.50803723 C7.27771833,1.68445549 7.27771833,10.9124876 7.27771833,10.9124876 C7.27771833,10.9124876 10.1261092,8.7411859 13.5441782,10.9124876 C13.5441782,10.9124876 13.5441782,1.68445549 13.5441782,1.50803723 C11.2654655,0.0559792419 9.55643101,0.0559792419 7.27771833,1.50803723 Z" id="Path-7-Copy-2"></path>
            <path d="M1.69193687,3.5103482 C1.69193687,3.5103482 3.61360719,1.86796394 5.39448163,3.5103482" id="Path-8-Copy-6"></path>
            <path d="M8.39487462,3.5103482 C8.39487462,3.5103482 10.3165449,1.86796394 12.0974194,3.5103482" id="Path-8-Copy-7"></path>
            <path d="M1.69193687,5.82764953 C1.69193687,5.82764953 3.61360719,4.18526528 5.39448163,5.82764953" id="Path-8-Copy-8"></path>
            <path d="M8.39487462,5.82764953 C8.39487462,5.82764953 10.3165449,4.18526528 12.0974194,5.82764953" id="Path-8-Copy-9"></path>
            <path d="M1.69193687,8.14495087 C1.69193687,8.14495087 3.61360719,6.50256661 5.39448163,8.14495087" id="Path-8-Copy-10"></path>
            <path d="M8.39487462,8.14495087 C8.39487462,8.14495087 10.3165449,6.50256661 12.0974194,8.14495087" id="Path-8-Copy-11"></path>
        </g>
    </g>
</svg>