<?xml version="1.0" encoding="UTF-8"?>
<svg width="18px" height="16px" viewBox="0 0 18 16" version="1.1" xmlns="http://www.w3.org/2000/svg" xmlns:xlink="http://www.w3.org/1999/xlink">
    <!-- Generator: Sketch 43 (38999) - http://www.bohemiancoding.com/sketch -->
    <title>科室</title>
    <desc>Created with Sketch.</desc>
    <defs>
        <path d="M3.65482,11.5648 L7.3684,11.5648 L7.6184,11.5648 L7.6184,11.3148 L7.6184,10.3322 C7.6184,8.2799 6.0353,6.6431 4.0421,6.6431 L2.0463,6.6431 C1.56362292,6.6431 1.10498922,6.73908585 0.687059444,6.91371393 C2.44662504,7.71632049 3.65482,9.4846272 3.65482,11.5618 L3.65482,11.5648 Z M0.478111551,4.81816133 C0.976359572,5.74962155 1.93789385,6.3814 3.0442,6.3814 C4.6635,6.3814 5.9728,5.0277 5.9728,3.3619 C5.9728,1.6962 4.6635,0.3425 3.0442,0.3425 C2.34474628,0.3425 1.70316229,0.595041138 1.1999451,1.01618568 C1.31356747,1.39768958 1.374585,1.80185759 1.374585,2.220277 C1.374585,3.20050867 1.03970559,4.10252507 0.478111551,4.81816133 Z" id="path-1"></path>
        <path d="M13.1548,15.1287 L13.4048,15.1287 L13.4048,14.8787 L13.4048,13.5618 C13.4048,10.8558 11.2517,8.7027 8.5457,8.7027 L5.7803,8.7027 C3.0743,8.7027 0.9212,10.8558 0.9212,13.5618 L0.9212,14.8787 L0.9212,15.1287 L1.1712,15.1287 L13.1548,15.1287 Z M7.163,8.1819 C4.9751,8.1819 3.2014,6.4082 3.2014,4.2203 C3.2014,2.0324 4.9751,0.2587 7.163,0.2587 C9.3509,0.2587 11.1246,2.0324 11.1246,4.2203 C11.1246,6.4082 9.3509,8.1819 7.163,8.1819 Z" id="path-3"></path>
    </defs>
    <g id="Page-1" stroke="none" stroke-width="1" fill="none" fill-rule="evenodd">
        <g id="科室" transform="translate(-1.000000, 0.000000)">
            <g id="Group-32" transform="translate(10.568453, 2.352196)">
                <mask id="mask-2" fill="white">
                    <use xlink:href="#path-1"></use>
                </mask>
                <use id="Combined-Shape" fill="#97B9ED" xlink:href="#path-1"></use>
            </g>
            <g id="Group-37" transform="translate(0.568453, 0.352196)">
                <mask id="mask-4" fill="white">
                    <use xlink:href="#path-3"></use>
                </mask>
                <use id="Clip-36" fill="#97B9ED" xlink:href="#path-3"></use>
            </g>
        </g>
    </g>
</svg>