<?xml version="1.0" encoding="UTF-8"?>
<svg width="13px" height="12px" viewBox="0 0 13 12" version="1.1" xmlns="http://www.w3.org/2000/svg" xmlns:xlink="http://www.w3.org/1999/xlink">
    <!-- Generator: Sketch 45.1 (43504) - http://www.bohemiancoding.com/sketch -->
    <title>药品</title>
    <desc>Created with Sketch.</desc>
    <defs></defs>
    <g id="Page-1" stroke="none" stroke-width="1" fill="none" fill-rule="evenodd">
        <g id="Artboard" transform="translate(-164.000000, -245.000000)">
            <g id="药品" transform="translate(162.333526, 242.611194)">
                <g id="Group-6" transform="translate(7.851376, 8.601393) rotate(-136.000000) translate(-7.851376, -8.601393) translate(4.351376, 1.101393)">
                    <path d="M6.71670422,4.19639755 L6.71670422,7.42419249 L0.51933794,7.42419249 L0.51933794,4.19639755 C0.51933794,2.41373563 1.90666564,0.968602614 3.61802108,0.968602614 C5.32937652,0.968602614 6.71670422,2.41373563 6.71670422,4.19639755 Z" id="Combined-Shape" fill="#97B9ED"></path>
                    <path d="M6.71670422,10.6519874 L6.71670422,14.8110292 L0.51933794,14.8110292 L0.51933794,10.6519874 C0.51933794,8.8693255 1.90666564,7.42419249 3.61802108,7.42419249 C5.32937652,7.42419249 6.71670422,8.8693255 6.71670422,10.6519874 Z" id="Path" fill="#FFFFFF" transform="translate(3.618021, 11.117611) rotate(-180.000000) translate(-3.618021, -11.117611) "></path>
                    <path d="M6.09696759,14.1654702 L6.09696759,10.6519874 C6.09696759,9.22585789 4.98710543,8.06975147 3.61802108,8.06975147 C2.24893673,8.06975147 1.13907457,9.22585789 1.13907457,10.6519874 L1.13907457,14.1654702 L6.09696759,14.1654702 Z M6.71670422,10.6519874 L6.71670422,14.8110292 L0.51933794,14.8110292 L0.51933794,10.6519874 C0.51933794,8.8693255 1.90666564,7.42419249 3.61802108,7.42419249 C5.32937652,7.42419249 6.71670422,8.8693255 6.71670422,10.6519874 Z" id="Combined-Shape" fill="#97B9ED" fill-rule="nonzero" transform="translate(3.618021, 11.117611) rotate(-180.000000) translate(-3.618021, -11.117611) "></path>
                </g>
            </g>
        </g>
    </g>
</svg>