<?xml version="1.0" encoding="UTF-8"?>
<svg width="12px" height="15px" viewBox="0 0 12 15" version="1.1" xmlns="http://www.w3.org/2000/svg" xmlns:xlink="http://www.w3.org/1999/xlink">
    <!-- Generator: Sketch 43 (38999) - http://www.bohemiancoding.com/sketch -->
    <title>材料</title>
    <desc>Created with Sketch.</desc>
    <defs>
        <path d="M6.37975276,0.0545064837 L1.45215276,0.0545064837 C0.899852761,0.0545064837 0.452152761,0.502226484 0.452152761,1.05450648 L0.452152761,13.3561055 C0.452152761,13.9083895 0.899852761,14.356105 1.45215276,14.356105 L10.2786528,14.356105 C10.8309528,14.356105 11.2786528,13.9083895 11.2786528,13.3561055 L11.2786528,4.87471648 L7.37645276,4.87471648 C6.82595276,4.87471648 6.37975276,4.42715648 6.37975276,3.87805648 L6.37975276,0.0545064837 Z" id="path-1"></path>
    </defs>
    <g id="Page-1" stroke="none" stroke-width="1" fill="none" fill-rule="evenodd">
        <g id="材料">
            <path d="M7.45430228,0.0765724986 L11.2636538,3.83400104 L11.2636538,5.27932948 L6.33035276,5.27932948 L6.33035276,0.0875872421 L7.45430228,0.0765724986 Z M7.25124426,0.578586484 L7.25614404,1.07856248 L6.83525254,1.08268723 L6.83035276,0.582711235 L7.33035276,0.582711235 L7.33035276,4.27932948 L10.7636538,4.27932948 L10.2636538,4.77932948 L10.2636538,4.04312048 L10.4125347,4.39909156 L6.90012521,0.934557563 L7.25124426,0.578586484 Z" id="Stroke-10" fill="#97B9ED" fill-rule="nonzero"></path>
            <mask id="mask-2" fill="white">
                <use xlink:href="#path-1"></use>
            </mask>
            <use id="Clip-12" fill="#97B9ED" xlink:href="#path-1"></use>
        </g>
    </g>
</svg>