<?xml version="1.0" encoding="UTF-8"?>
<svg width="12px" height="14px" viewBox="0 0 12 14" version="1.1" xmlns="http://www.w3.org/2000/svg" xmlns:xlink="http://www.w3.org/1999/xlink">
    <!-- Generator: Sketch 45.1 (43504) - http://www.bohemiancoding.com/sketch -->
    <title>药物组</title>
    <desc>Created with Sketch.</desc>
    <defs></defs>
    <g id="Page-1" stroke="none" stroke-width="1" fill="none" fill-rule="evenodd">
        <g id="Artboard" transform="translate(-166.000000, -265.000000)">
            <g id="药物组" transform="translate(164.333526, 264.204815)">
                <g id="Group-4" transform="translate(0.742259, 0.309902)">
                    <g id="Group-3" transform="translate(0.755440, 0.907337)">
                        <g id="Group-2" transform="translate(0.000000, 0.000000)">
                            <polygon id="Rectangle-4" fill="#97B9ED" points="0.530295661 2.60611748 6.09479969 0.280543864 11.6593037 2.60611748 11.6593037 10.6409711 6.09479969 13.0714625 0.530295661 10.6409711"></polygon>
                            <path d="M11.6593037,3.4255542 L6.50904327,5.60839658 L6.50904327,12.8905271 L6.09479969,13.0714625 L5.64364164,12.8744034 L5.64364164,5.60765912 L5.67461865,5.60765912 L0.530295661,3.44140725 L0.530295661,2.60611748 L0.646244001,2.55765918 L6.09405469,4.8517084 L11.524899,2.54994573 L11.6593037,2.60611748 L11.6593037,3.4255542 Z" id="Combined-Shape" fill="#FFFFFF" fill-rule="nonzero"></path>
                        </g>
                    </g>
                    <path d="M9.55815245,9.02624177 L8.43175857,9.52493072 C8.21917828,9.52493072 8.0468479,9.6972611 8.0468479,9.90984139 C8.0468479,10.1224217 8.21917828,10.2947521 8.43175857,10.2947521 L9.55815245,9.79606311 L9.55815245,10.9934074 C9.55815245,11.2371324 9.73048283,11.4347106 9.94306312,11.4347106 C10.1556434,11.4347106 10.3279738,11.2371324 10.3279738,10.9934074 L10.3279738,9.45523971 L11.5110439,8.93145844 C11.7236242,8.93145844 11.8959546,8.75912806 11.8959546,8.54654777 C11.8959546,8.33396748 11.7236242,8.1616371 11.5110439,8.1616371 L10.3279738,8.68541836 L10.3279738,7.46298178 C10.3279738,7.21925675 10.1556434,7.02167858 9.94306312,7.02167858 C9.73048283,7.02167858 9.55815245,7.21925675 9.55815245,7.46298178 L9.55815245,9.02624177 Z" id="Combined-Shape" fill="#FFFFFF" fill-rule="nonzero"></path>
                </g>
            </g>
        </g>
    </g>
</svg>