<?xml version="1.0" encoding="UTF-8"?>
<svg width="14px" height="12px" viewBox="0 0 14 12" version="1.1" xmlns="http://www.w3.org/2000/svg" xmlns:xlink="http://www.w3.org/1999/xlink">
    <!-- Generator: Sketch 43 (38999) - http://www.bohemiancoding.com/sketch -->
    <title>书</title>
    <desc>Created with Sketch.</desc>
    <defs></defs>
    <g id="Page-1" stroke="none" stroke-width="1" fill="none" fill-rule="evenodd">
        <g id="回收站" transform="translate(-2294.000000, -703.000000)" fill-rule="nonzero" fill="#FFFFFF">
            <g id="书" transform="translate(2294.000000, 703.000000)">
                <path d="M7,1.24705235 L7.16191216,1.1438775 C9.55535941,-0.381292499 11.4111004,-0.381292499 13.8045477,1.1438775 L13.9664599,1.24705235 L13.9664599,11.4804763 L13.4287893,11.1389253 C11.6378507,10.0012456 9.90246295,10.0012456 8.35596713,10.6813682 C7.97189994,10.8502745 7.69972261,11.016998 7.56218308,11.1218431 L7,11.55039 L7,1.24705235 Z M7.7,6.13998758 C7.7,8.93324111 7.7,9.51473604 7.7,10.2195635 C7.81268967,10.1609208 7.93760728,10.1006529 8.07416657,10.0405965 C9.66306992,9.34182369 11.4452333,9.27932391 13.2664599,10.2362123 C13.2664599,9.5417963 13.2664599,8.97159336 13.2664599,6.20742551 L13.2664599,6.13998758 C13.2664599,2.8697285 13.2664599,2.69022321 13.2664599,1.63292189 C11.2391492,0.389023217 9.72731062,0.389023217 7.7,1.63293035 C7.7,2.69022321 7.7,2.8697285 7.7,6.13998758 Z" id="Path-7-Copy-2"></path>
                <path d="M0.0335401382,1.24705235 L0.1954523,1.1438775 C2.58889955,-0.381292499 4.44464059,-0.381292499 6.83808784,1.1438775 L7,1.24705235 L7,11.4804763 L6.46232945,11.1389253 C4.67139087,10.0012456 2.93600309,10.0012456 1.38950727,10.6813682 C1.00544008,10.8502745 0.733262749,11.016998 0.595723215,11.1218431 L0.0335401382,11.55039 L0.0335401382,1.24705235 Z M0.733540138,6.13998758 C0.733540138,8.93324111 0.733540138,9.51473604 0.733540138,10.2195635 C0.846229807,10.1609208 0.971147416,10.1006529 1.10770671,10.0405965 C2.69661006,9.34182369 4.47877348,9.27932391 6.3,10.2362123 C6.3,9.5417963 6.3,8.97159336 6.3,6.20742551 L6.3,6.13998758 C6.3,2.8697285 6.3,2.69022321 6.3,1.63292189 C4.27268938,0.389023217 2.76085075,0.389023217 0.733540138,1.63293035 C0.733540138,2.69022321 0.733540138,2.8697285 0.733540138,6.13998758 Z" id="Path-7-Copy-2" transform="translate(3.516770, 5.775195) scale(-1, 1) translate(-3.516770, -5.775195) "></path>
                <path d="M1.91933356,3.7764135 C2.00730796,3.70122486 2.18062349,3.57921764 2.41768333,3.45584577 C3.22639851,3.03497016 4.0551862,2.98006786 4.83171535,3.50782178 C4.94173916,3.58259746 5.05027444,3.66902634 5.15720062,3.76763737 L5.63176265,3.25305902 C5.49969287,3.13125969 5.36409835,3.02328298 5.22518659,2.92887413 C4.2029183,2.23410807 3.10981931,2.30651944 2.09452869,2.83490207 C1.80561321,2.98526091 1.59008471,3.13698439 1.46454018,3.24428289 L1.91933356,3.7764135 Z" id="Path-8-Copy-6"></path>
                <path d="M8.62227131,3.7764135 C8.71024571,3.70122486 8.88356124,3.57921764 9.12062107,3.45584577 C9.92933626,3.03497016 10.7581239,2.98006786 11.5346531,3.50782178 C11.6446769,3.58259746 11.7532122,3.66902634 11.8601384,3.76763737 L12.3347004,3.25305902 C12.2026306,3.13125969 12.0670361,3.02328298 11.9281243,2.92887413 C10.905856,2.23410807 9.81275705,2.30651944 8.79746644,2.83490207 C8.50855096,2.98526091 8.29302245,3.13698439 8.16747793,3.24428289 L8.62227131,3.7764135 Z" id="Path-8-Copy-7"></path>
                <path d="M1.91933356,6.09371484 C2.00730796,6.0185262 2.18062349,5.89651898 2.41768333,5.77314711 C3.22639851,5.3522715 4.0551862,5.29736919 4.83171535,5.82512312 C4.94173916,5.8998988 5.05027444,5.98632767 5.15720062,6.08493871 L5.63176265,5.57036036 C5.49969287,5.44856102 5.36409835,5.34058432 5.22518659,5.24617547 C4.2029183,4.5514094 3.10981931,4.62382078 2.09452869,5.1522034 C1.80561321,5.30256224 1.59008471,5.45428573 1.46454018,5.56158423 L1.91933356,6.09371484 Z" id="Path-8-Copy-8"></path>
                <path d="M8.62227131,6.09371484 C8.71024571,6.0185262 8.88356124,5.89651898 9.12062107,5.77314711 C9.92933626,5.3522715 10.7581239,5.29736919 11.5346531,5.82512312 C11.6446769,5.8998988 11.7532122,5.98632767 11.8601384,6.08493871 L12.3347004,5.57036036 C12.2026306,5.44856102 12.0670361,5.34058432 11.9281243,5.24617547 C10.905856,4.5514094 9.81275705,4.62382078 8.79746644,5.1522034 C8.50855096,5.30256224 8.29302245,5.45428573 8.16747793,5.56158423 L8.62227131,6.09371484 Z" id="Path-8-Copy-9"></path>
                <path d="M1.91933356,8.41101617 C2.00730796,8.33582754 2.18062349,8.21382031 2.41768333,8.09044844 C3.22639851,7.66957283 4.0551862,7.61467053 4.83171535,8.14242445 C4.94173916,8.21720014 5.05027444,8.30362901 5.15720062,8.40224005 L5.63176265,7.88766169 C5.49969287,7.76586236 5.36409835,7.65788565 5.22518659,7.5634768 C4.2029183,6.86871074 3.10981931,6.94112211 2.09452869,7.46950474 C1.80561321,7.61986358 1.59008471,7.77158706 1.46454018,7.87888557 L1.91933356,8.41101617 Z" id="Path-8-Copy-10"></path>
                <path d="M8.62227131,8.41101617 C8.71024571,8.33582754 8.88356124,8.21382031 9.12062107,8.09044844 C9.92933626,7.66957283 10.7581239,7.61467053 11.5346531,8.14242445 C11.6446769,8.21720014 11.7532122,8.30362901 11.8601384,8.40224005 L12.3347004,7.88766169 C12.2026306,7.76586236 12.0670361,7.65788565 11.9281243,7.5634768 C10.905856,6.86871074 9.81275705,6.94112211 8.79746644,7.46950474 C8.50855096,7.61986358 8.29302245,7.77158706 8.16747793,7.87888557 L8.62227131,8.41101617 Z" id="Path-8-Copy-11"></path>
            </g>
        </g>
    </g>
</svg>