<?xml version="1.0" encoding="UTF-8"?>
<svg width="17px" height="15px" viewBox="0 0 17 15" version="1.1" xmlns="http://www.w3.org/2000/svg" xmlns:xlink="http://www.w3.org/1999/xlink">
    <!-- Generator: Sketch 43 (38999) - http://www.bohemiancoding.com/sketch -->
    <title>首页</title>
    <desc>Created with Sketch.</desc>
    <defs></defs>
    <g id="Page-1" stroke="none" stroke-width="1" fill="none" fill-rule="evenodd">
        <g id="回收站" transform="translate(-2292.000000, -717.000000)" fill-rule="nonzero" fill="#FFFFFF">
            <g id="首页" transform="translate(2292.000000, 717.000000)">
                <polygon id="Path-3" points="10.5666667 13.2990855 10.5666667 9.44723367 6.43333333 9.44723367 6.43333333 13.2990855 3.9 13.2990855 3.9 7.5 3.1 7.5 3.1 14.0990855 7.23333333 14.0990855 7.23333333 10.2472337 9.76666667 10.2472337 9.76666667 14.0990855 13.9 14.0990855 13.9 7.5 13.1 7.5 13.1 13.2990855"></polygon>
                <polygon id="Path-4" points="15.7380278 7.80227563 16.2619722 7.19772437 8.5 0.47068178 0.738027785 7.19772437 1.26197222 7.80227563 8.5 1.52931822"></polygon>
                <polygon id="Path-5" points="13.725 1.4 13.725 3.70833333 14.525 3.70833333 14.525 0.6 11 0.6 11 1.4"></polygon>
            </g>
        </g>
    </g>
</svg>