<?xml version="1.0" encoding="UTF-8"?>
<svg width="15px" height="13px" viewBox="0 0 15 13" version="1.1" xmlns="http://www.w3.org/2000/svg" xmlns:xlink="http://www.w3.org/1999/xlink">
    <!-- Generator: Sketch 45.1 (43504) - http://www.bohemiancoding.com/sketch -->
    <title>扶뒬못 copy</title>
    <desc>Created with Sketch.</desc>
    <defs></defs>
    <g id="Page-1" stroke="none" stroke-width="1" fill="none" fill-rule="evenodd">
        <g id="Artboard" transform="translate(-208.000000, -141.000000)" fill-rule="nonzero" fill="#FFFFFF">
            <g id="扶뒬못-copy" transform="translate(208.884681, 142.000000)">
                <polygon id="Path-3" points="10.4979116 10.6722773 8.47846853 10.6722773 8.47846853 7.2986986 4.65902543 7.2986986 4.65902543 10.6722773 2.63958233 10.6722773 2.63958233 5.69291405 1.73958233 5.69291405 1.73958233 11.5722773 5.55902543 11.5722773 5.55902543 8.1986986 7.57846853 8.1986986 7.57846853 11.5722773 11.3979116 11.5722773 11.3979116 5.69291405 10.4979116 5.69291405"></polygon>
                <polygon id="Path-4" points="6.56874698 0.595482997 12.8427752 6.03297414 13.4322127 5.35285396 6.56874698 -0.595482997 -0.294718742 5.35285396 0.294718742 6.03297414"></polygon>
                <polygon id="Path-5" points="11.0453072 0.45 11.0453072 2.37204752 11.9453072 2.37204752 11.9453072 -0.45 8.75832931 -0.45 8.75832931 0.45"></polygon>
            </g>
        </g>
    </g>
</svg>