<?xml version="1.0" encoding="UTF-8"?>
<svg width="16px" height="14px" viewBox="0 0 16 14" version="1.1" xmlns="http://www.w3.org/2000/svg" xmlns:xlink="http://www.w3.org/1999/xlink">
    <!-- Generator: Sketch 45.1 (43504) - http://www.bohemiancoding.com/sketch -->
    <title>扶뒬못</title>
    <desc>Created with Sketch.</desc>
    <defs></defs>
    <g id="Page-1" stroke="none" stroke-width="1" fill="none" fill-rule="evenodd">
        <g id="扶뒬못" transform="translate(0.000000, -0.380000)" fill-rule="nonzero" fill="#FFFFFF">
            <path d="M10.0055556,13.2490855 L10.0055556,9.84723367 C10.0055556,9.59870554 9.80408369,9.39723367 9.55555556,9.39723367 L6.44444444,9.39723367 C6.19591631,9.39723367 5.99444444,9.59870554 5.99444444,9.84723367 L5.99444444,13.2490855 L3.78333333,13.2490855 L3.78333333,7.5 C3.78333333,7.25147186 3.58186147,7.05 3.33333333,7.05 C3.0848052,7.05 2.88333333,7.25147186 2.88333333,7.5 L2.88333333,13.6990855 C2.88333333,13.9476137 3.0848052,14.1490855 3.33333333,14.1490855 L6.44444444,14.1490855 C6.69297258,14.1490855 6.89444444,13.9476137 6.89444444,13.6990855 L6.89444444,10.2972337 L9.10555556,10.2972337 L9.10555556,13.6990855 C9.10555556,13.9476137 9.30702742,14.1490855 9.55555556,14.1490855 L12.6666667,14.1490855 C12.9151948,14.1490855 13.1166667,13.9476137 13.1166667,13.6990855 L13.1166667,7.5 C13.1166667,7.25147186 12.9151948,7.05 12.6666667,7.05 C12.4181385,7.05 12.2166667,7.25147186 12.2166667,7.5 L12.2166667,13.2490855 L10.0055556,13.2490855 Z" id="Path-3"></path>
            <path d="M8,1.61408842 L14.693797,7.82975707 C14.8759168,7.99886832 15.1606458,7.9883228 15.3297571,7.80620299 C15.4988683,7.62408319 15.4883228,7.33935417 15.306203,7.17024293 L8.30620299,0.670242929 C8.13354648,0.509919024 7.86645352,0.509919024 7.69379701,0.670242929 L0.693797005,7.17024293 C0.511677204,7.33935417 0.501131684,7.62408319 0.670242929,7.80620299 C0.839354173,7.9883228 1.12408319,7.99886832 1.30620299,7.82975707 L8,1.61408842 Z" id="Path-4"></path>
            <path d="M12.8,3.70833333 C12.8,3.95686147 13.0014719,4.15833333 13.25,4.15833333 C13.4985281,4.15833333 13.7,3.95686147 13.7,3.70833333 L13.7,1 C13.7,0.751471863 13.4985281,0.55 13.25,0.55 L10.3333333,0.55 C10.0848052,0.55 9.88333333,0.751471863 9.88333333,1 C9.88333333,1.24852814 10.0848052,1.45 10.3333333,1.45 L12.8,1.45 L12.8,3.70833333 Z" id="Path-5"></path>
        </g>
    </g>
</svg>