<?xml version="1.0" encoding="UTF-8"?>
<svg width="12px" height="15px" viewBox="0 0 12 15" version="1.1" xmlns="http://www.w3.org/2000/svg" xmlns:xlink="http://www.w3.org/1999/xlink">
    <!-- Generator: Sketch 43 (38999) - http://www.bohemiancoding.com/sketch -->
    <title>项目</title>
    <desc>Created with Sketch.</desc>
    <defs>
        <path d="M1.2382,0.21847 L9.7238,0.21847 C10.276,0.21847 10.7238,0.66619 10.7238,1.21847 L10.7238,13.21847 C10.7238,13.77076 10.276,14.21847 9.7238,14.21847 L1.2382,14.21847 C0.6859,14.21847 0.2382,13.77076 0.2382,13.21847 L0.2382,1.21847 C0.2382,0.66619 0.6859,0.21847 1.2382,0.21847 Z M2.981,4.21847 C2.7048,4.21847 2.481,4.44233 2.481,4.71847 C2.481,4.99461 2.7048,5.21847 2.981,5.21847 L7.981,5.21847 C8.2571,5.21847 8.481,4.99461 8.481,4.71847 C8.481,4.44233 8.2571,4.21847 7.981,4.21847 L2.981,4.21847 Z M2.981,8.27797 C2.7048,8.27797 2.481,8.50183 2.481,8.77797 C2.481,9.05411 2.7048,9.27797 2.981,9.27797 L7.981,9.27797 C8.2571,9.27797 8.481,9.05411 8.481,8.77797 C8.481,8.50183 8.2571,8.27797 7.981,8.27797 L2.981,8.27797 Z" id="path-1"></path>
    </defs>
    <g id="Page-1" stroke="none" stroke-width="1" fill="none" fill-rule="evenodd">
        <g id="项目" transform="translate(0.568453, 0.352196)">
            <mask id="mask-2" fill="white">
                <use xlink:href="#path-1"></use>
            </mask>
            <use id="Combined-Shape" fill="#97B9ED" xlink:href="#path-1"></use>
        </g>
    </g>
</svg>