<?xml version="1.0" encoding="UTF-8"?>
<svg width="15px" height="15px" viewBox="0 0 15 15" version="1.1" xmlns="http://www.w3.org/2000/svg" xmlns:xlink="http://www.w3.org/1999/xlink">
    <!-- Generator: Sketch 43 (38999) - http://www.bohemiancoding.com/sketch -->
    <title>规则分析</title>
    <desc>Created with Sketch.</desc>
    <defs>
        <path d="M7.7166,14.04516 C3.8506,14.04516 0.7166,10.91115 0.7166,7.04516 C0.7166,3.17916 3.8506,0.04516 7.7166,0.04516 C11.5826,0.04516 14.7166,3.17916 14.7166,7.04516 C14.7166,10.91115 11.5826,14.04516 7.7166,14.04516 Z M7.7166,5.05316 C7.4846,5.05316 7.3046,5.10316 7.1766,5.20316 C7.0486,5.30316 6.9846,5.48115 6.9846,5.73716 L6.9846,10.94516 C6.9846,11.20116 7.0486,11.37916 7.1766,11.47916 C7.3046,11.57916 7.4846,11.62916 7.7166,11.62916 C8.2046,11.62916 8.4486,11.40916 8.4486,10.96916 L8.4486,5.71316 C8.4486,5.27315 8.2046,5.05316 7.7166,5.05316 Z M7.7166,4.09316 C7.9486,4.09316 8.1426,4.01516 8.2986,3.85916 C8.4546,3.70316 8.5326,3.50916 8.5326,3.27716 C8.5326,3.04516 8.4546,2.85116 8.2986,2.69516 C8.1426,2.53916 7.9486,2.46116 7.7166,2.46116 C7.4846,2.46116 7.2906,2.53916 7.1346,2.69516 C6.9786,2.85116 6.9006,3.04516 6.9006,3.27716 C6.9006,3.50916 6.9786,3.70316 7.1346,3.85916 C7.2906,4.01516 7.4846,4.09316 7.7166,4.09316 Z" id="path-1"></path>
    </defs>
    <g id="Page-1" stroke="none" stroke-width="1" fill="none" fill-rule="evenodd">
        <g id="规则分析" transform="translate(0.000000, 0.352196)">
            <mask id="mask-2" fill="white">
                <use xlink:href="#path-1"></use>
            </mask>
            <use id="Combined-Shape" fill="#97B9ED" xlink:href="#path-1"></use>
        </g>
    </g>
</svg>