<svg id="图层_1" data-name="图层 1" xmlns="http://www.w3.org/2000/svg" viewBox="0 0 13.49 13.5"><defs><style>.cls-1{fill:#4baae0;}</style></defs><title>u7002(1)</title><g id="Page-1"><g id="规则校验"><g id="效果分析"><path id="Shape" class="cls-1" d="M11.36,2.09a.54.54,0,0,0-.76,0L7.18,5.91,5.95,4.55a.54.54,0,0,0-.79,0L2.55,7.34a.54.54,0,1,0,.79.74l2.2-2.36L6.78,7.07a.54.54,0,0,0,.4.18h0a.54.54,0,0,0,.4-.18l3.81-4.22a.54.54,0,0,0,0-.76Z" transform="translate(-0.25 -0.25)"/><path id="Shape-2" data-name="Shape" class="cls-1" d="M13.75.79a.54.54,0,0,0-.54-.54H.79A.54.54,0,0,0,.25.79v9.35a.54.54,0,0,0,.54.54H4.6L2.46,12.83a.54.54,0,1,0,.76.76l2.84-2.84.06-.07H8l0,0,2.87,2.87a.54.54,0,1,0,.76-.76L9.47,10.68h3.73a.54.54,0,0,0,.54-.54V.79ZM1.33,1.33H12.67V9.6H1.33V1.33Z" transform="translate(-0.25 -0.25)"/></g></g></g></svg>