<?xml version="1.0" encoding="UTF-8" standalone="no"?>
<svg width="17px" height="16px" viewBox="0 0 17 16" version="1.1" xmlns="http://www.w3.org/2000/svg" xmlns:xlink="http://www.w3.org/1999/xlink">
    <!-- Generator: Sketch 40.2 (33826) - http://www.bohemiancoding.com/sketch -->
    <title>首页-首页</title>
    <desc>Created with Sketch.</desc>
    <defs></defs>
    <g id="Page-1" stroke="none" stroke-width="1.4" fill="none" fill-rule="evenodd">
        <g id="规则校验" transform="translate(-318.000000, -107.000000)"  stroke-width="1.4" fill="#FFFFFF">
            <g id="首页-首页" transform="translate(318.000000, 107.000000)">
                <path d="M15.410992,7.36541937 L7.76441411,0.0136839827 L0.117836256,7.3438263 C-0.0317522225,7.48722565 -0.0400999982,7.72840584 0.0997061693,7.88206818 C0.239359727,8.03562067 0.47418098,8.0442987 0.623662632,7.90056981 L7.76384945,1.0561618 L14.9043567,7.92140963 C14.973005,7.98758885 15.0636058,8.02436928 15.1577049,8.0242592 C15.2565199,8.0242592 15.3553808,7.98389773 15.4282979,7.90358279 C15.5682262,7.7500303 15.5605346,7.5090855 15.4109614,7.36545076 L15.410992,7.36541937 Z" id="Shape"></path>
                <path d="M13.0776284,7.51641396 C12.8729629,7.51641396 12.7069383,7.68704004 12.7069383,7.89722727 L12.7069383,13.7363804 L9.74124981,13.7363804 L9.74124981,9.67437175 L5.78705952,9.67437175 L5.78705952,13.7363804 L2.82149311,13.7363804 L2.82149311,7.89722727 C2.82149311,7.68704004 2.65563639,7.51641396 2.45081829,7.51641396 C2.24587811,7.51641396 2.08005191,7.68704004 2.08005191,7.89722727 L2.08005191,14.4979756 L6.52853125,14.4979756 L6.52853125,10.4359827 L8.99990018,10.4359827 L8.99990018,14.4979756 L13.4482727,14.4979756 L13.4482727,7.89722727 C13.4482879,7.68704004 13.2822176,7.51641396 13.0776437,7.51641396 L13.0776284,7.51641396 Z M10.4827215,2.05812121 L12.7069231,2.05812121 L12.7069231,4.08907846 C12.7069231,4.29957955 12.8729782,4.46997024 13.0776131,4.46997024 C13.2822176,4.46997024 13.4482574,4.29957955 13.4482574,4.08907846 L13.4482574,1.29652597 L10.4827063,1.29652597 C10.277995,1.29652597 10.1119399,1.46682251 10.1119399,1.67733929 C10.1119246,1.8877776 10.277995,2.0581526 10.4827063,2.0581526 L10.4827215,2.05812121 Z" id="Shape"></path>

            </g>
        </g>

    </g>
</svg>