<?xml version="1.0" encoding="UTF-8" standalone="no"?>
<svg width="15px" height="14px" viewBox="0 0 15 14" version="1.1" xmlns="http://www.w3.org/2000/svg" xmlns:xlink="http://www.w3.org/1999/xlink">
    <!-- Generator: Sketch 42 (36781) - http://www.bohemiancoding.com/sketch -->
    <title>Shape</title>
    <desc>Created with Sketch.</desc>
    <defs></defs>
    <g id="Page-1" stroke="none" stroke-width="1" fill="none" fill-rule="evenodd">
        <g id="规则校验" transform="translate(-317.000000, -166.000000)" fill="#FFFFFF">
            <path d="M321.979764,180 C321.883099,180 321.789242,179.970586 321.707285,179.914432 L319.369285,178.324748 C319.162051,178.183027 319.094801,177.911617 319.218873,177.695024 C319.228901,177.673632 319.355648,177.426289 319.413406,177.057279 C319.490283,176.566602 319.412737,176.095981 319.183711,175.65611 C318.901872,175.115965 317.828267,174.975581 317.474365,174.968896 C317.211245,174.966222 317,174.752303 317,174.488915 L317,171.457952 C317,171.204191 317.196939,170.994283 317.450567,170.977972 C317.915172,170.946151 318.968054,170.73758 319.24548,170.291693 C319.51729,169.852758 319.429985,169.523858 319.18732,168.758162 C319.128092,168.570582 319.060975,168.359738 318.997735,168.130712 C318.94118,167.923745 319.028218,167.704478 319.210718,167.593909 L321.68255,166.073882 C321.805554,165.998342 321.955698,165.977886 322.092071,166.02575 C322.228445,166.072545 322.334067,166.176563 322.383268,166.310529 C322.411345,166.376711 322.827551,167.33373 324.107722,167.393494 C324.137136,167.395499 324.166549,167.396168 324.195963,167.396168 C325.29203,167.396168 325.717194,166.374037 325.742597,166.311866 C325.792065,166.17683 325.897688,166.07455 326.032724,166.027354 C326.169098,165.979891 326.317504,165.996871 326.440507,166.072144 L329.088823,167.667577 C329.305416,167.797934 329.384298,168.074692 329.269317,168.299975 C329.047376,168.733562 328.682377,169.766389 328.972504,170.195162 C329.41906,170.852027 329.730579,170.860985 330.298801,170.876093 C330.47261,170.880104 330.669148,170.886388 330.880393,170.912593 C331.119715,170.943611 331.300209,171.147904 331.300209,171.389632 L331.300209,174.436772 C331.300209,174.579831 331.240044,174.716204 331.130411,174.807119 C331.022114,174.898035 330.88173,174.936808 330.741346,174.912742 C330.73065,174.911405 330.658452,174.902046 330.551493,174.902046 C330.199864,174.902046 329.540726,174.994298 329.080801,175.616 C328.652963,176.194918 328.671681,176.765814 329.144976,177.582717 C329.265306,177.791288 329.2145,178.056012 329.024647,178.204419 L326.857381,179.895715 C326.651485,180.057491 326.354672,180.024066 326.188885,179.82218 C326.175515,179.807473 325.263686,178.716487 324.215751,178.716487 C324.209734,178.716487 324.204386,178.716487 324.199038,178.717824 C323.731759,178.720498 323.289215,178.895644 322.884373,179.231229 C322.571116,179.490606 322.396371,179.756667 322.385274,179.772711 C322.316686,179.885019 322.206117,179.962564 322.078033,179.989304 C322.045544,179.995989 322.01252,180 321.979764,180 L321.979764,180 Z M324.215885,177.753852 C325.270505,177.753852 326.155594,178.437055 326.608834,178.870241 L328.115626,177.69235 C327.935131,177.311307 327.837531,176.965026 327.814802,176.620082 C327.777366,176.066567 327.943153,175.535781 328.306816,175.043767 C328.622346,174.618603 329.028792,174.30909 329.51412,174.12659 C329.817618,174.010272 330.107745,173.964814 330.337708,173.946096 L330.337708,171.839664 C330.316316,171.838995 330.294924,171.838327 330.273532,171.837658 C329.629102,171.82001 328.899103,171.800891 328.177127,170.734238 C327.868282,170.278992 327.821487,169.642182 328.03808,168.843061 C328.096908,168.63048 328.166431,168.433273 328.22927,168.27377 L326.372187,167.154306 C326.298652,167.265009 326.209074,167.384001 326.100777,167.503929 C325.563306,168.095549 324.855636,168.392094 324.062799,168.354925 C323.054038,168.307061 322.409875,167.857564 322.047282,167.487484 C321.934574,167.372503 321.841385,167.25712 321.765444,167.152835 L320.027754,168.219755 C320.053424,168.303718 320.07963,168.386879 320.105032,168.467099 C320.232715,168.871539 320.343686,169.221564 320.369757,169.587232 C320.400909,170.021487 320.300501,170.417905 320.062917,170.799884 C319.788834,171.241493 319.264331,171.567719 318.504251,171.769204 C318.307713,171.820678 318.120133,171.858114 317.962769,171.882849 L317.962769,174.047707 C318.117191,174.069099 318.296348,174.101187 318.485533,174.149319 C319.238928,174.341846 319.775063,174.708182 320.037514,175.210891 C320.581403,176.252409 320.408262,177.221729 320.233384,177.748504 L321.877885,178.86623 C322.277646,178.423685 323.059787,177.765885 324.187941,177.753852 C324.197167,177.753852 324.206526,177.753852 324.215885,177.753852 L324.215885,177.753852 Z M324.150372,175.916824 C322.542237,175.916824 321.234658,174.607908 321.234658,173.000174 C321.234658,171.392439 322.542237,170.084459 324.150372,170.084459 C325.75717,170.084459 327.066086,171.39244 327.066086,173.000174 C327.066086,174.607908 325.757036,175.916824 324.150372,175.916824 L324.150372,175.916824 Z M324.150372,171.047228 C323.073424,171.047228 322.197293,171.923627 322.197293,173.000307 C322.197293,174.077255 323.073424,174.954322 324.150372,174.954322 C325.227721,174.954322 326.103451,174.077255 326.103451,173.000307 C326.103317,171.923627 325.227587,171.047228 324.150372,171.047228 L324.150372,171.047228 Z" id="Shape"></path>
        </g>
    </g>
</svg>