<?xml version="1.0" encoding="UTF-8" standalone="no"?>
<svg width="15px" height="14px" viewBox="0 0 15 14" version="1.1" xmlns="http://www.w3.org/2000/svg" xmlns:xlink="http://www.w3.org/1999/xlink">
    <!-- Generator: Sketch 42 (36781) - http://www.bohemiancoding.com/sketch -->
    <title>医保知识</title>
    <desc>Created with Sketch.</desc>
    <defs></defs>
    <g id="Page-1" stroke="none" stroke-width="1" fill="none" fill-rule="evenodd">
        <g id="规则校验" transform="translate(-317.000000, -137.000000)" fill="#FFFFFF">
            <g id="医保知识" transform="translate(317.000000, 137.000000)">
                <path d="M1.53317525,8.18572086 C1.25238315,8.18572086 1.02443611,7.95724914 1.02443611,7.67479336 L1.02443611,5.1204978 C1.02443611,4.83849786 1.25238315,4.60965171 1.53317525,4.60965171 C1.81390251,4.60965171 2.04176849,4.83849786 2.04176849,5.1204978 L2.04176849,7.67479336 C2.04176849,7.95724914 1.8139025,8.18572086 1.53317525,8.18572086 L1.53317525,8.18572086 L1.53317525,8.18572086 L1.53317525,8.18572086 Z M12.7239773,13.2943446 L2.55049141,13.2943446 C1.70915256,13.2943446 1.02443611,12.6117133 1.02443611,11.7724208 L1.02443611,10.7399839 C1.02443611,10.4574141 1.25238315,10.2291378 1.53317525,10.2291378 C1.81390251,10.2291378 2.04176849,10.4573979 2.04176849,10.7399839 L2.04176849,11.7724208 C2.04176849,12.0488367 2.27026667,12.2725059 2.55049141,12.2725059 L12.7239611,12.2725059 C13.004737,12.2725059 13.232684,12.0436597 13.232684,11.76179 L13.232684,1.54452633 C13.232684,1.26301479 13.004737,1.03361513 12.7239611,1.03361513 L2.55049141,1.03361511 C2.25543439,1.03361511 2.04176849,1.19559984 2.04176849,1.30540757 L2.04176849,2.05529101 C2.04176849,2.33737234 1.81390251,2.56621851 1.53317525,2.56621851 C1.25238315,2.56621851 1.02443611,2.33737236 1.02443611,2.05529101 L1.02443611,1.30540757 C1.02443611,0.592267797 1.70915256,0.0119066502 2.55049141,0.0119066502 L12.7239611,0.0119066502 C13.5652838,0.0119066502 14.2500002,0.699487021 14.2500002,1.54452632 L14.2500002,11.76179 C14.2500002,12.6066177 13.5653,13.2943446 12.7239773,13.2943446 L12.7239773,13.2943446 L12.7239773,13.2943446 L12.7239773,13.2943446 Z M2.04176849,4.09880562 L0.515875291,4.09880562 C0.235002147,4.09880562 0.00713615138,3.86995947 0.00713615138,3.58786186 C0.00713615138,3.30594333 0.235002131,3.07709716 0.515875291,3.07709716 L2.04176849,3.07709716 C2.32262543,3.07709716 2.55049141,3.30594331 2.55049141,3.58786186 C2.55049141,3.86997575 2.32262543,4.09880562 2.04176849,4.09880562 L2.04176849,4.09880562 L2.04176849,4.09880562 L2.04176849,4.09880562 Z M2.04176849,9.71821029 L0.515875291,9.71821029 C0.235002147,9.71821029 0.00713615138,9.48990138 0.00713615138,9.20736421 C0.00713615138,8.92487588 0.235002131,8.6965344 0.515875291,8.6965344 L2.04176849,8.6965344 C2.32262543,8.6965344 2.55049141,8.92487588 2.55049141,9.20736421 C2.55049141,9.48988509 2.32262543,9.71821029 2.04176849,9.71821029 L2.04176849,9.71821029 L2.04176849,9.71821029 L2.04176849,9.71821029 Z" id="Shape"></path>
                <rect id="Rectangle" x="4.46672734" y="5.93409099" width="5.77139402" height="0.954545468"></rect>
                <rect id="Rectangle" transform="translate(7.375152, 6.411364) rotate(-90.000000) translate(-7.375152, -6.411364) " x="4.4894546" y="5.91136373" width="5.77139402" height="0.954545468"></rect>
            </g>
        </g>
    </g>
</svg>