<?xml version="1.0" encoding="UTF-8" standalone="no"?>
<svg width="13px" height="14px" viewBox="0 0 13 14" version="1.1" xmlns="http://www.w3.org/2000/svg" xmlns:xlink="http://www.w3.org/1999/xlink">
    <!-- Generator: Sketch 42 (36781) - http://www.bohemiancoding.com/sketch -->
    <title>版本</title>
    <desc>Created with Sketch.</desc>
    <defs></defs>
    <g id="Page-1" stroke="none" stroke-width="1" fill="none" fill-rule="evenodd">
        <g id="疾病" transform="translate(-496.000000, -136.000000)" fill="#646464">
            <g id="版本" transform="translate(496.000000, 136.000000)">
                <path d="M9.88670338,2.58491271 L12.0764711,2.58491271 C12.3267302,2.58491271 12.5144246,2.23568007 12.3267302,2.06106375 L10.1369625,0.0820787601 C9.94926816,-0.0925375615 9.57387941,0.0238733252 9.57387941,0.314900533 L9.57387941,2.29388551 C9.57387941,2.46850183 9.699009,2.58491271 9.88670338,2.58491271 L9.88670338,2.58491271 Z" id="Shape"></path>
                <path d="M10.1369625,3.69081608 C8.94823151,3.69081608 8.51027796,3.283378 8.44771317,2.06106375 L8.44771317,0.0238733252 L1.31532698,0.0238733252 C0.376855109,0.0238733252 0.00146636229,0.431311403 0.00146636229,1.24618758 L0.00146636229,12.7708648 C0.00146636229,13.7021518 0.439419895,13.993179 1.31532698,13.993179 L11.0754344,13.993179 C12.0139063,13.993179 12.389295,13.6439464 12.389295,12.7708648 L12.389295,3.69081608 L10.1369625,3.69081608 L10.1369625,3.69081608 Z M2.06610447,1.77003654 L6.25794548,1.77003654 C6.44563985,1.77003654 6.57076944,1.88644743 6.57076944,2.06106375 C6.57076944,2.23568007 6.44563985,2.35209096 6.25794548,2.35209094 L2.06610447,2.35209094 C1.8784101,2.35209094 1.75328051,2.23568005 1.75328051,2.06106375 C1.75328051,1.88644744 1.8784101,1.77003654 2.06610447,1.77003654 L2.06610447,1.77003654 Z M1.75328051,3.80722696 C1.75328051,3.63261064 1.8784101,3.51619976 2.06610447,3.51619976 L6.25794548,3.51619976 C6.44563985,3.51619976 6.57076944,3.63261064 6.57076944,3.80722696 C6.57076944,3.98184329 6.44563985,4.09825417 6.25794548,4.09825416 L2.06610447,4.09825416 C1.8784101,4.09825416 1.75328051,3.98184327 1.75328051,3.80722696 L1.75328051,3.80722696 Z M9.6364442,6.77570443 L7.32154693,11.4903451 C7.25898215,11.606756 7.13385256,11.6649614 7.00872297,11.6649614 L5.31947361,11.6649614 C5.19434402,11.6649614 5.06921445,11.606756 5.00664966,11.4903451 L2.69175238,6.77570443 C2.56662279,6.60108811 2.75431716,6.36826635 3.00457634,6.36826634 L3.81791862,6.36826634 C3.94304821,6.36826634 4.06817778,6.42647177 4.13074258,6.54288266 C4.50613133,7.29955338 6.0702511,10.2680308 6.0702511,10.5008526 L6.19538069,10.5008526 C6.25794548,10.3262363 7.32154693,8.63827852 8.19745401,6.54288266 C8.2600188,6.42647177 8.38514839,6.36826634 8.51027796,6.36826634 L9.32362026,6.36826634 C9.57387941,6.3100609 9.699009,6.54288266 9.6364442,6.77570443 L9.6364442,6.77570443 Z" id="Shape"></path>
            </g>
        </g>
    </g>
</svg>