<?xml version="1.0" encoding="UTF-8" standalone="no"?>
<svg width="14px" height="14px" viewBox="0 0 14 14" version="1.1" xmlns="http://www.w3.org/2000/svg" xmlns:xlink="http://www.w3.org/1999/xlink">
    <!-- Generator: Sketch 42 (36781) - http://www.bohemiancoding.com/sketch -->
    <title>效果分析</title>
    <desc>Created with Sketch.</desc>
    <defs></defs>
    <g id="Page-1" stroke="none" stroke-width="1" fill="none" fill-rule="evenodd">
        <g id="规则校验" transform="translate(-318.000000, -107.000000)" fill="#FFFFFF">
            <g id="效果分析" transform="translate(318.000000, 107.000000)">
                <path d="M11.1015474,1.83990954 C10.8808368,1.63989415 10.5398916,1.65686565 10.3400714,1.87779186 L6.92357094,5.65524425 L5.69241078,4.30479635 C5.59095072,4.19349681 5.44760199,4.12972554 5.29706965,4.1289161 C5.14692817,4.12849789 5.00252818,4.19033995 4.89988208,4.30054672 L2.29844506,7.09345014 C2.09540363,7.31142185 2.10734486,7.65290233 2.32511741,7.85612854 C2.42901692,7.95310079 2.560977,8.00107427 2.69264058,8.00107427 C2.83694621,8.00107427 2.98090144,7.94342786 3.08706522,7.82943014 L5.28995344,5.46444311 L6.52694943,6.82128567 C6.62911033,6.93335419 6.7736451,6.99716592 6.92517478,6.99716592 L6.92623951,6.99716592 C7.07814657,6.99686912 7.22288349,6.93242332 7.32482876,6.81970724 L11.1393928,2.60212926 C11.3392131,2.38118955 11.3222716,2.03993842 11.1015474,1.83990954 L11.1015474,1.83990954 Z" id="Shape"></path>
                <path d="M13.4911287,0.542089468 C13.4911287,0.244063033 13.2497567,0.00245533888 12.952021,0.00245533888 L0.539107657,0.00245533888 C0.316685318,0.00245533888 0.125787297,0.137309911 0.0433981668,0.329756933 C0.0154993434,0.394931241 -6.8454727e-17,0.466702581 -6.8454727e-17,0.542102968 L-6.8454727e-17,9.88891683 C-6.8454727e-17,10.1869433 0.241371979,10.428551 0.539107657,10.428551 L4.34710807,10.428551 L2.20143263,12.5763218 C1.99089762,12.7870624 1.99089762,13.1287317 2.20143263,13.3394723 C2.30672036,13.4448629 2.44465106,13.4975312 2.58263566,13.4975312 C2.72059331,13.4975312 2.85859139,13.4448359 2.96383869,13.3394723 L5.79900586,10.5015499 C5.82186402,10.4786695 5.84208056,10.4541701 5.85997893,10.4285509 L7.69876732,10.4285509 C7.70933383,10.4412728 7.72047987,10.4536709 7.73240763,10.4655968 L10.6034794,13.3394723 C10.7087536,13.4448494 10.8467113,13.4975312 10.9846824,13.4975312 C11.1226535,13.4975312 11.2606246,13.4448494 11.3658854,13.3394723 C11.5764204,13.1287317 11.5764204,12.7870624 11.3658854,12.5763218 L9.22020998,10.4285509 L12.952021,10.4285509 C13.1826647,10.4285509 13.3793851,10.2835243 13.4563832,10.079637 C13.4787831,10.0203312 13.4911421,9.95607429 13.4911421,9.88891681 L13.4911421,0.542089468 L13.4911287,0.542089468 Z M1.07821531,1.0817236 L12.4129133,1.0817236 L12.4129133,9.3492692 L1.07821531,9.3492692 L1.07821531,1.0817236 L1.07821531,1.0817236 Z" id="Shape"></path>
            </g>
        </g>
    </g>
</svg>