<svg id="图层_1" data-name="图层 1" xmlns="http://www.w3.org/2000/svg" viewBox="0 0 14.3 14"><defs><style>.cls-1{fill:#4baae0;}</style></defs><title>u7004(1)</title><g id="Page-1"><g id="规则校验"><path id="Shape" class="cls-1" d="M5.33,14a.48.48,0,0,1-.27-.09L2.72,12.32a.48.48,0,0,1-.15-.63,2.27,2.27,0,0,0,.19-.64,2.23,2.23,0,0,0-.23-1.4C2.25,9.12,1.18,9,.82,9a.48.48,0,0,1-.47-.48v-3A.48.48,0,0,1,.8,5c.46,0,1.52-.24,1.79-.69s.18-.77-.06-1.53c-.06-.19-.13-.4-.19-.63a.48.48,0,0,1,.21-.54L5,.07a.48.48,0,0,1,.41,0,.47.47,0,0,1,.29.28A1.91,1.91,0,0,0,7.46,1.39h.09A1.74,1.74,0,0,0,9.09.31.47.47,0,0,1,9.38,0a.48.48,0,0,1,.41,0l2.65,1.6a.48.48,0,0,1,.18.63c-.22.43-.59,1.47-.3,1.9a1.29,1.29,0,0,0,1.33.68,5.7,5.7,0,0,1,.58,0,.48.48,0,0,1,.42.48v3a.48.48,0,0,1-.56.48H13.9a1.79,1.79,0,0,0-1.47.71,1.6,1.6,0,0,0,.06,2,.48.48,0,0,1-.12.62L10.21,13.9a.48.48,0,0,1-.67-.07,3.11,3.11,0,0,0-2-1.11h0a2.06,2.06,0,0,0-1.31.51,2.69,2.69,0,0,0-.5.54.47.47,0,0,1-.31.22Zm2.24-2.25A3.68,3.68,0,0,1,10,12.87l1.51-1.18a2.93,2.93,0,0,1-.3-1.07A2.34,2.34,0,0,1,11.66,9a2.64,2.64,0,0,1,1.21-.92,3,3,0,0,1,.82-.18V5.84h-.06a2.21,2.21,0,0,1-2.1-1.1,2.26,2.26,0,0,1-.14-1.89,5.78,5.78,0,0,1,.19-.57L9.72,1.15a3,3,0,0,1-.27.35,2.52,2.52,0,0,1-2,.85,3,3,0,0,1-2-.87,3,3,0,0,1-.28-.33L3.38,2.22l.08.25a4.92,4.92,0,0,1,.26,1.12A2,2,0,0,1,3.41,4.8a2.49,2.49,0,0,1-1.56,1c-.2.05-.38.09-.54.11V8a4.8,4.8,0,0,1,.52.1A2.29,2.29,0,0,1,3.39,9.21a3.23,3.23,0,0,1,.2,2.54l1.64,1.12a3.19,3.19,0,0,1,2.31-1.11ZM7.5,9.92A2.92,2.92,0,1,1,10.42,7,2.92,2.92,0,0,1,7.5,9.92ZM7.5,5a2,2,0,1,0,2,2,2,2,0,0,0-2-2Z" transform="translate(-0.35 0)"/></g></g></svg>