<svg id="图层_1" data-name="图层 1" xmlns="http://www.w3.org/2000/svg" viewBox="0 0 14.24 13.28"><defs><style>.cls-1{fill:#4baae0;}</style></defs><title>u7003(1)</title><g id="Page-1"><g id="规则校验"><g id="医保知识"><path id="Shape" class="cls-1" d="M1.9,8.19a.51.51,0,0,1-.51-.51V5.12a.51.51,0,1,1,1,0V7.67a.51.51,0,0,1-.51.51ZM13.1,13.29H2.92A1.53,1.53,0,0,1,1.4,11.77v-1a.51.51,0,1,1,1,0v1a.5.5,0,0,0,.51.5H13.1a.51.51,0,0,0,.51-.51V1.54A.51.51,0,0,0,13.1,1H2.92c-.3,0-.51.16-.51.27v.75a.51.51,0,1,1-1,0V1.31A1.43,1.43,0,0,1,2.92,0H13.1a1.53,1.53,0,0,1,1.53,1.53V11.76a1.53,1.53,0,0,1-1.53,1.53ZM2.41,4.1H.89a.51.51,0,0,1,0-1H2.41a.51.51,0,0,1,0,1Zm0,5.62H.89a.51.51,0,0,1,0-1H2.41a.51.51,0,0,1,0,1Z" transform="translate(-0.38 -0.01)"/><rect id="Rectangle" class="cls-1" x="4.46" y="5.92" width="5.77" height="0.95"/><rect id="Rectangle-2" data-name="Rectangle" class="cls-1" x="6.87" y="3.51" width="0.95" height="5.77"/></g></g></g></svg>