<?xml version="1.0" encoding="UTF-8" standalone="no"?>
<svg width="15px" height="14px" viewBox="0 0 15 14" version="1.1" xmlns="http://www.w3.org/2000/svg" xmlns:xlink="http://www.w3.org/1999/xlink">
    <!-- Generator: Sketch 42 (36781) - http://www.bohemiancoding.com/sketch -->
    <title>Shape</title>
    <desc>Created with Sketch.</desc>
    <defs></defs>
    <g id="Page-1" stroke="none" stroke-width="1" fill="none" fill-rule="evenodd">
        <g id="规则校验" transform="translate(-317.000000, -194.000000)" fill="#FFFFFF">
            <path d="M331.189189,206.042847 L331.189189,205.138314 L330.50182,205.023577 C330.473832,204.938435 330.439939,204.855833 330.400304,204.776324 L330.805594,204.207498 L330.169065,203.568218 L329.602973,203.974159 C329.524035,203.933852 329.440957,203.899619 329.355836,203.871349 L329.240961,203.181823 L328.340956,203.181823 L328.226633,203.871018 C328.141457,203.898846 328.058931,203.933852 327.979496,203.974049 L327.413349,203.567556 L326.777372,204.206946 L327.182165,204.776324 C327.142475,204.855833 327.108582,204.937773 327.08065,205.023577 L326.392783,205.138976 L326.392783,206.043399 L327.08214,206.158246 C327.110182,206.242946 327.144131,206.325106 327.183821,206.403291 L326.777372,206.974877 L327.413349,207.614268 L327.983857,207.205124 C328.061029,207.244327 328.142561,207.278008 328.226081,207.306278 L328.341618,208 L329.241569,208 L329.356885,207.306278 C329.44046,207.278008 329.52144,207.244768 329.599219,207.205124 L330.169065,207.614268 L330.805594,206.974877 L330.3992,206.403291 C330.43889,206.325106 330.472784,206.242946 330.500826,206.158688 L331.189189,206.042847 L331.189189,206.042847 L331.189189,206.042847 L331.189189,206.042847 Z M328.791124,206.31064 C328.39555,206.31064 328.074774,205.988515 328.074774,205.590967 C328.074774,205.193308 328.39555,204.871183 328.791124,204.871183 C329.186974,204.871183 329.507585,205.193308 329.507585,205.590967 C329.507585,205.988515 329.186974,206.31064 328.791124,206.31064 L328.791124,206.31064 L328.791124,206.31064 L328.791124,206.31064 Z M328.371703,202.514395 L328.371703,197.659809 C328.371703,196.879675 328.138863,196.646889 327.36157,196.646889 L325.89332,196.646889 L325.89332,198.526575 L320.070464,198.526575 L320.070464,196.646889 L319.22864,196.646889 L318.829092,196.646889 C318.051302,196.646889 317.818572,196.879675 317.818572,197.659809 L317.818572,205.816907 C317.818572,206.596433 318.051302,206.82933 318.829092,206.82933 L326.166899,206.82933 L326.166899,207.651151 L318.829103,207.651151 C317.600041,207.65114 317,207.048865 317,205.816907 L317,197.659809 C317,196.427133 317.600041,195.825454 318.829103,195.825454 L320.070475,195.825454 L320.070475,195.369157 L321.2551,195.369157 C321.440786,194.58539 322.144551,194 322.981682,194 C323.818648,194 324.522412,194.58539 324.707503,195.369168 L325.893342,195.369168 L325.893342,195.825465 L327.361592,195.825465 C328.590268,195.825465 329.19075,196.427144 329.19075,197.65982 L329.19075,202.514395 L328.371703,202.514395 L328.371703,202.514395 L328.371703,202.514395 Z M323.936657,196.190547 L323.936657,195.779913 C323.936657,195.251173 323.508514,194.821876 322.981671,194.821876 C322.454607,194.821876 322.026574,195.251173 322.026574,195.779913 L322.026574,196.190547 L320.888871,196.190547 L320.888871,197.704765 L325.073743,197.704765 L325.073743,196.190547 L323.936657,196.190547 L323.936657,196.190547 L323.936657,196.190547 Z M319.683667,204.092209 L325.955267,204.092209 L325.955267,204.913478 L319.683667,204.913478 L319.683667,204.092209 L319.683667,204.092209 Z M319.683667,199.985688 L326.506995,199.985688 L326.506995,200.80773 L319.683667,200.80773 L319.683667,199.985688 L319.683667,199.985688 Z M326.507006,202.70069 C326.447278,202.747292 326.393898,202.800298 326.348412,202.860483 L319.683667,202.860483 L319.683667,202.039214 L326.506995,202.039214 L326.506995,202.70069 L326.507006,202.70069 L326.507006,202.70069 Z" id="Shape"></path>
        </g>
    </g>
</svg>