<svg id="图层_1" data-name="图层 1" xmlns="http://www.w3.org/2000/svg" viewBox="0 0 14.19 14"><defs><style>.cls-1{fill:#4baae0;}</style></defs><title>u7005(1)</title><g id="Page-1"><g id="规则校验"><path id="Shape" class="cls-1" d="M14.9,12v-.9L14.21,11a1.85,1.85,0,0,0-.1-.25l.41-.57-.64-.64-.57.41-.25-.1-.11-.69H12l-.11.69-.25.1-.57-.41-.64.64.4.57a1.8,1.8,0,0,0-.1.25l-.69.12V12l.69.11a1.77,1.77,0,0,0,.1.25l-.41.57.64.64.57-.41.24.1.12.69H13l.12-.69.24-.1.57.41.64-.64-.41-.57a1.79,1.79,0,0,0,.1-.24L14.9,12Zm-2.4.27a.72.72,0,1,1,.72-.72.72.72,0,0,1-.72.72Zm-.42-3.8V3.66c0-.78-.23-1-1-1H9.6V4.53H3.78V2.65H2.54c-.78,0-1,.23-1,1v8.16c0,.78.23,1,1,1H9.88v.82H2.54A1.61,1.61,0,0,1,.71,11.82V3.66A1.61,1.61,0,0,1,2.54,1.83H3.78V1.37H5a1.77,1.77,0,0,1,3.45,0H9.6v.46h1.47A1.61,1.61,0,0,1,12.9,3.66V8.51ZM7.65,2.19V1.78a1,1,0,1,0-1.91,0v.41H4.6V3.7H8.78V2.19Zm-4.25,7.9H9.66v.82H3.39v-.82ZM3.39,6h6.82v.82H3.39V6ZM10.22,8.7a.86.86,0,0,0-.16.16H3.39V8h6.82V8.7Z" transform="translate(-0.71)"/></g></g></svg>