<?xml version="1.0" encoding="UTF-8" standalone="no"?>
<svg width="14px" height="13px" viewBox="0 0 14 13" version="1.1" xmlns="http://www.w3.org/2000/svg" xmlns:xlink="http://www.w3.org/1999/xlink">
    <!-- Generator: Sketch 42 (36781) - http://www.bohemiancoding.com/sketch -->
    <title>Combined Shape</title>
    <desc>Created with Sketch.</desc>
    <defs></defs>
    <g id="Page-1" stroke="none" stroke-width="1" fill="none" fill-rule="evenodd">
        <g id="项目" transform="translate(-253.000000, -190.000000)" fill="#B4BCC2">
            <g id="Group-10" transform="translate(244.000000, 183.000000)">
                <path d="M19.8220241,16.5294689 L21.8955866,18.4133485 C22.1103446,18.6084611 22.1085435,18.9126018 21.9109064,19.110239 L21.2084853,19.8126601 C21.0023962,20.0187492 20.6988397,20.0034383 20.5115948,19.7973402 L18.6274564,17.7234929 C17.6206414,18.4802004 16.3662135,18.9290808 15.0062115,18.9290808 C11.6890725,18.9290808 9,16.2586651 9,12.9645404 C9,9.67041569 11.6890725,7 15.0062115,7 C18.3233505,7 21.0124229,9.67041569 21.0124229,12.9645404 C21.0124229,14.3010976 20.5697352,15.5349768 19.8220241,16.5294689 Z M15.0062115,17.9349907 C17.770494,17.9349907 20.0113877,15.7096443 20.0113877,12.9645404 C20.0113877,10.3238692 17.9377527,8.16416128 15.3193316,8.00365833 C15.2157787,7.99731079 15.1113739,7.99409006 15.0062115,7.99409006 C12.241929,7.99409006 10.0010352,10.2194365 10.0010352,12.9645404 C10.0010352,15.7096443 12.241929,17.9349907 15.0062115,17.9349907 Z M14.3428883,8.9342236 C14.505864,8.90221102 14.6641598,9.00723422 14.6964518,9.1687995 C14.7287439,9.33036477 14.6228038,9.48729064 14.4598281,9.51930322 C14.2206032,9.56629308 13.9876894,9.63650745 13.7637968,9.72870314 C13.313592,9.91409085 12.9044743,10.1865242 12.5598047,10.5288025 C12.2151077,10.8711079 11.9407274,11.2774518 11.7540014,11.7246361 C11.6611314,11.9470478 11.5904015,12.1784272 11.5430658,12.4160807 C11.5108811,12.577667 11.3526551,12.6827935 11.1896581,12.6508873 C11.0266612,12.6189812 10.9206169,12.4621245 10.9528017,12.3005382 C11.0078385,12.0242206 11.0900941,11.755137 11.1980865,11.4965091 C11.4150922,10.9768088 11.7337706,10.5048617 12.1339984,10.1074107 C12.5342535,9.70993249 13.009563,9.3934217 13.532998,9.17787891 C13.7935056,9.07060569 14.0645513,8.98889608 14.3428883,8.9342236 Z" id="Combined-Shape"></path>
            </g>
        </g>
    </g>
</svg>