<?xml version="1.0" encoding="UTF-8" standalone="no"?>
<svg width="30px" height="30px" viewBox="0 0 30 30" version="1.1" xmlns="http://www.w3.org/2000/svg" xmlns:xlink="http://www.w3.org/1999/xlink">
    <!-- Generator: Sketch 42 (36781) - http://www.bohemiancoding.com/sketch -->
    <title>Shape</title>
    <desc>Created with Sketch.</desc>
    <defs></defs>
    <g id="Page-1" stroke="none" stroke-width="1" fill="none" fill-rule="evenodd">
        <g id="新增审方方案" transform="translate(-545.000000, -290.000000)" fill="#FAA12A">
            <g id="Group-38" transform="translate(400.000000, 255.000000)">
                <path d="M160,65 C168.284281,65 175,58.2842809 175,50 C175,41.7157191 168.284281,35 160,35 C151.715753,35 145,41.7157191 145,50 C145,58.2842472 151.715753,65 160,65 L160,65 Z M159.877674,58.9245281 C159.281955,58.9245281 158.799022,58.4415955 158.799022,57.8458764 C158.799022,57.2501573 159.281955,56.7672247 159.877674,56.7672247 C160.473393,56.7672247 160.956326,57.2501573 160.956326,57.8458764 C160.956326,58.4416292 160.473393,58.9245281 159.877674,58.9245281 L159.877674,58.9245281 Z M154.52109,46.347382 C154.711404,44.7858989 155.276989,43.5899438 156.217876,42.7595506 C157.158562,41.9293933 158.402045,41.5141124 159.948494,41.5141124 C161.586191,41.5141124 162.892539,41.9596966 163.867708,42.8509663 C164.842674,43.7422022 165.330225,44.8201798 165.330225,46.0845955 C165.330225,46.8158876 165.158854,47.4900449 164.816079,48.1070337 C164.47327,48.7240562 163.802888,49.474427 162.805067,50.3579775 C162.134652,50.9521461 161.696719,51.3902809 161.491067,51.6720112 C161.285382,51.9538764 161.132921,52.277573 161.033989,52.6432022 C160.934888,53.0088652 160.877753,53.603 160.862618,54.4257079 L160.86164,54.4257079 C160.861708,54.4306292 160.862011,54.4355169 160.862011,54.4404719 C160.862011,54.9872472 160.418787,55.4304719 159.872011,55.4304719 C159.32527,55.4304719 158.882011,54.9872472 158.882011,54.4404719 C158.882011,54.4181573 158.874427,53.9369438 158.874427,53.8087191 C158.874427,53.0013483 158.988697,52.3043708 159.217202,51.7177191 C159.384663,51.2760112 159.655169,50.8303933 160.028483,50.3808315 C160.302697,50.0533933 160.795843,49.5753146 161.508191,48.9468315 C162.220371,48.318382 162.683112,47.817618 162.896449,47.4443034 C163.109618,47.0711236 163.216371,46.6635281 163.216371,46.2216854 C163.216371,45.4218652 162.903966,44.7191573 162.279427,44.1135618 C161.654753,43.508 160.88918,43.2052022 159.982775,43.2052022 C159.106708,43.2052022 158.375416,43.4794157 157.788966,44.0278427 C157.209966,44.5691573 156.828191,45.4115506 156.642562,46.5538427 C156.604202,47.1075955 156.143146,47.5449888 155.579652,47.5449888 C154.991011,47.5449888 154.513843,47.0678202 154.513843,46.4792135 C154.513843,46.4345843 154.51691,46.3907303 154.522236,46.3475169 L154.52109,46.347382 L154.52109,46.347382 Z" id="Shape"></path>
            </g>
        </g>
    </g>
</svg>