<?xml version="1.0" encoding="UTF-8" standalone="no"?>
<svg width="13px" height="14px" viewBox="0 0 13 14" version="1.1" xmlns="http://www.w3.org/2000/svg" xmlns:xlink="http://www.w3.org/1999/xlink">
    <!-- Generator: Sketch 40.2 (33826) - http://www.bohemiancoding.com/sketch -->
    <title>Shape</title>
    <desc>Created with Sketch.</desc>
    <defs></defs>
    <g id="Page-1" stroke="none" stroke-width="1" fill="none" fill-rule="evenodd">
        <g id="审方方案列表" transform="translate(-1094.000000, -202.000000)" fill="#5D9CEC">
            <g id="Group-10" transform="translate(196.000000, 141.000000)">
                <g id="Group-33-Copy">
                    <path d="M910.546033,73.8491559 L910.044051,74.3511476 C909.846569,74.5496175 909.525471,74.5496175 909.327186,74.3511476 L907.303526,72.32665 C906.816491,72.6111192 906.249798,72.7748848 905.644089,72.7748848 C903.85608,72.7748848 902.309511,71.2498855 902.258064,69.4685204 L899.699258,69.4685204 L899.699258,68.6216683 L902.343527,68.6216683 C902.414877,68.3189776 902.532687,68.0378013 902.68039,67.7748165 L899.699258,67.7748165 L899.699258,66.9279644 L903.344155,66.9279644 C903.337516,66.9345818 903.334196,66.9445087 903.328391,66.9511261 C903.914167,66.4152297 904.686603,66.0811277 905.542863,66.0811277 C907.363234,66.0811277 908.939695,67.6582216 908.939695,69.4784481 C908.939695,70.1053305 908.765451,70.6908448 908.461786,71.1903581 L910.474652,73.2032666 C910.672969,73.4017522 910.744318,73.6514871 910.546033,73.8491559 L910.546033,73.8491559 Z M905.542879,67.0950237 C904.283393,67.0950237 903.262013,68.1171986 903.262013,69.3775509 C903.262013,70.6379182 904.38462,71.760991 905.644105,71.760991 C906.904455,71.760991 907.925804,70.7387996 907.925804,69.4784488 C907.925804,68.21808 906.803198,67.0950237 905.542879,67.0950237 L905.542879,67.0950237 Z M899.699257,63.5405566 L905.646606,63.5405566 L905.646606,64.3874087 L899.699258,64.3874087 L899.699258,63.540556 L899.699257,63.5405566 Z M905.646592,65.4310828 C905.140472,65.5749946 904.665866,65.7867008 904.246042,66.0811119 L899.699258,66.0811119 L899.699258,65.2342598 L905.646606,65.2342598 L905.646606,65.4310834 L905.646592,65.4310828 Z M906.496228,65.2764294 L906.496228,62.6937039 L898.849621,62.6937039 L898.849621,71.1622251 L902.446406,71.1622251 C902.626457,71.7932166 902.933441,72.3646799 903.344155,72.8559136 L898.849621,72.8559136 C898.380002,72.8559136 898,72.4763343 898,72.0090919 L898,61.8468518 C898,61.3787632 898.380003,61 898.849621,61 L906.496212,61 C906.964981,61 907.345818,61.3787647 907.345818,61.8468518 L907.345818,65.2764289 C907.203937,65.2640252 907.066209,65.2342596 906.920992,65.2342596 C906.774988,65.2342601 906.638093,65.2640392 906.496228,65.2764294 L906.496228,65.2764294 Z" id="Shape"></path>
                </g>
            </g>
        </g>
    </g>
</svg>